<?xml version="1.0" standalone="no"?>
<!DOCTYPE svg PUBLIC "-//W3C//DTD SVG 20010904//EN"
 "http://www.w3.org/TR/2001/REC-SVG-20010904/DTD/svg10.dtd">
<svg version="1.0" xmlns="http://www.w3.org/2000/svg"
 width="328.000000pt" height="328.000000pt" viewBox="0 0 328.000000 328.000000"
 preserveAspectRatio="xMidYMid meet">

<g transform="translate(0.000000,328.000000) scale(0.100000,-0.100000)"
fill="#000000" stroke="none">
<path d="M1601 2897 c-41 -21 -38 -40 3 -20 20 9 36 20 36 25 0 11 -11 10 -39
-5z"/>
<path d="M1397 2853 c-4 -6 0 -16 8 -23 21 -17 28 -8 11 15 -8 11 -15 14 -19
8z"/>
<path d="M2060 2643 c-43 -13 -43 -16 0 -29 24 -7 46 -11 49 -8 9 9 -34 42
-49 37z"/>
<path d="M1406 2339 c3 -5 18 -16 35 -24 24 -13 29 -13 29 -2 0 8 -16 18 -35
24 -19 6 -32 7 -29 2z"/>
<path d="M1630 2251 c-15 -29 -12 -33 11 -20 12 6 39 9 60 7 50 -5 50 4 -1 20
-52 16 -57 15 -70 -7z"/>
<path d="M1066 2153 c-12 -12 -6 -33 9 -33 8 0 15 6 15 14 0 17 -14 28 -24 19z"/>
<path d="M2109 1990 l-24 -19 38 -1 c39 0 47 10 23 29 -10 9 -19 7 -37 -9z"/>
<path d="M1280 1805 c0 -2 22 -15 49 -28 45 -21 49 -22 40 -5 -13 24 -89 53
-89 33z"/>
</g>
</svg>
