<?xml version="1.0" standalone="no"?>
<!DOCTYPE svg PUBLIC "-//W3C//DTD SVG 20010904//EN"
 "http://www.w3.org/TR/2001/REC-SVG-20010904/DTD/svg10.dtd">
<svg version="1.0" xmlns="http://www.w3.org/2000/svg"
 width="2000.000000pt" height="1951.000000pt" viewBox="0 0 2000.000000 1951.000000"
 preserveAspectRatio="xMidYMid meet">

<g transform="translate(0.000000,1951.000000) scale(0.100000,-0.100000)"
fill="#000000" stroke="none">
<path d="M10480 19503 c-433 -30 -755 -92 -1145 -220 l-170 -56 -385 -2 c-393
-1 -496 -8 -720 -50 -131 -25 -128 -22 -87 -56 20 -16 62 -65 95 -108 57 -76
162 -249 162 -268 0 -5 -46 -42 -102 -83 -220 -159 -445 -359 -631 -559 -101
-109 -204 -231 -194 -231 2 0 53 23 113 51 162 76 400 171 585 234 170 58 461
147 464 143 1 -2 28 -48 60 -103 129 -223 330 -495 529 -718 49 -54 90 -96 93
-93 3 3 23 72 43 153 87 336 226 664 387 912 30 47 56 87 57 87 0 1 80 11 176
23 366 44 707 69 1105 79 l250 7 -160 73 c-258 119 -491 208 -748 286 -78 24
-142 47 -144 52 -4 13 183 151 297 220 118 71 285 152 410 198 l95 35 -195 -1
c-107 -1 -215 -3 -240 -5z"/>
<path d="M12724 18542 c0 -119 -5 -164 -23 -237 -13 -49 -27 -94 -31 -98 -4
-5 -25 0 -47 11 -145 75 -442 188 -668 257 -233 71 -631 155 -732 155 -35 0
-33 -2 68 -71 128 -88 260 -189 402 -307 285 -238 684 -634 674 -671 -7 -30
-216 -333 -323 -471 -91 -116 -239 -294 -349 -417 -26 -29 -42 -53 -37 -53 5
0 58 11 118 24 326 74 792 138 1091 152 l138 6 50 -73 c243 -357 337 -501 472
-729 95 -162 205 -362 264 -482 24 -49 47 -88 51 -88 15 0 0 455 -22 680 -20
197 -68 504 -95 614 l-8 28 44 -7 c148 -24 401 -124 503 -198 28 -20 52 -34
54 -32 7 7 -141 285 -211 395 -148 236 -360 488 -562 671 -63 57 -122 107
-130 112 -9 4 -35 48 -60 96 -152 304 -385 640 -567 818 l-63 62 -1 -147z"/>
<path d="M6965 18508 c-60 -51 -180 -162 -265 -248 -647 -646 -1088 -1443
-1253 -2260 -44 -220 -45 -217 20 -90 97 187 196 342 352 548 114 151 110 146
115 141 2 -2 29 -56 61 -119 68 -136 164 -299 232 -392 l49 -67 12 212 c17
303 53 555 117 833 l16 71 135 123 c172 157 411 356 587 489 75 57 137 106
137 109 0 17 -423 -30 -567 -64 -36 -8 -68 -13 -70 -10 -8 8 104 253 179 391
83 151 151 263 219 358 27 37 46 67 42 67 -5 0 -57 -42 -118 -92z"/>
<path d="M9141 17334 c-107 -400 -189 -921 -219 -1397 -5 -70 -13 -131 -18
-136 -5 -4 -81 -36 -169 -71 -338 -134 -1130 -481 -1157 -509 -20 -19 922
-393 1299 -515 l52 -17 5 -52 c54 -524 93 -809 156 -1119 40 -196 102 -458
109 -458 3 0 19 24 35 53 165 294 689 1148 753 1226 l18 21 150 -40 c222 -61
549 -142 820 -204 247 -57 726 -156 752 -156 9 0 -53 70 -136 155 -276 284
-549 591 -839 944 l-152 184 47 66 c218 307 595 815 833 1121 75 96 140 181
144 189 11 17 16 18 -379 -79 -411 -101 -965 -259 -1244 -355 -53 -18 -78 -22
-87 -14 -40 33 -517 775 -678 1054 l-85 147 -10 -38z"/>
<path d="M6219 15915 c-171 -272 -336 -628 -418 -900 l-22 -70 -72 -29 c-109
-43 -250 -123 -308 -175 l-52 -47 18 -54 c29 -90 131 -279 204 -378 l68 -92 6
-238 c8 -315 41 -549 112 -797 28 -101 96 -288 101 -282 2 2 20 60 38 129 44
159 110 326 197 498 37 74 72 141 77 149 8 11 39 -8 143 -87 74 -55 195 -140
269 -190 145 -97 421 -264 427 -258 2 1 -25 59 -60 127 -120 236 -241 542
-331 842 l-48 156 100 118 c227 270 491 535 758 763 60 51 115 98 123 106 12
10 1 12 -60 8 -349 -20 -453 -27 -584 -40 -162 -16 -484 -60 -509 -70 -10 -4
-17 2 -21 18 -12 52 -55 405 -70 573 -9 99 -19 209 -23 245 l-7 65 -56 -90z"/>
<path d="M13815 15348 c-67 -178 -241 -601 -328 -798 -75 -170 -272 -595 -282
-608 -1 -1 -67 -10 -146 -19 -274 -30 -897 -21 -1207 18 -46 6 -86 9 -89 6 -9
-9 237 -286 412 -466 159 -162 313 -304 452 -415 l72 -57 -86 -142 c-118 -196
-352 -547 -462 -695 -107 -144 -119 -136 114 -70 342 96 681 249 958 431 l98
65 62 -46 c81 -59 201 -181 256 -260 49 -70 44 -71 95 28 95 185 172 459 216
769 18 128 21 137 60 190 205 284 391 665 484 993 37 126 79 318 72 325 -2 2
-23 -22 -47 -54 -100 -133 -266 -266 -441 -354 -43 -21 -81 -39 -86 -39 -4 0
-16 106 -25 236 -10 130 -29 333 -42 452 -24 213 -74 574 -80 580 -1 2 -15
-30 -30 -70z"/>
<path d="M7030 13061 c0 -20 97 -273 168 -436 83 -192 203 -442 275 -573 31
-56 57 -106 57 -112 0 -17 -263 -94 -420 -122 -97 -17 -397 -17 -469 0 -30 7
-56 10 -58 8 -8 -7 149 -136 234 -192 281 -185 733 -353 1143 -425 l75 -13
154 -158 c293 -302 552 -479 847 -578 65 -21 120 -38 121 -36 2 2 -8 23 -21
47 -55 100 -109 337 -122 532 l-7 104 289 6 c261 5 451 16 648 35 l69 7 -154
69 c-179 80 -525 253 -718 358 l-133 73 6 85 c13 166 38 398 62 575 24 175 95
605 113 685 5 22 7 40 4 40 -3 0 -33 -26 -67 -59 -150 -144 -396 -344 -616
-502 -139 -100 -382 -259 -396 -259 -10 0 -186 124 -363 258 -224 169 -536
425 -693 570 -16 15 -28 20 -28 13z"/>
<path d="M11936 11879 c-175 -235 -309 -392 -509 -595 l-178 -182 -182 -7
c-252 -10 -698 13 -997 50 l-45 6 55 -51 c147 -137 394 -318 538 -395 28 -16
52 -32 52 -36 0 -8 -123 -80 -225 -131 -108 -55 -290 -124 -395 -152 l-95 -25
142 -1 c716 -2 1547 235 2223 635 271 161 581 389 752 556 85 83 85 83 -41 9
-149 -87 -369 -182 -578 -250 -125 -41 -404 -112 -411 -105 -2 2 5 52 15 112
15 88 18 160 17 388 -1 154 -5 292 -10 307 -9 26 -14 21 -128 -133z"/>
<path d="M9575 8869 c-1172 -84 -2233 -538 -3096 -1326 -74 -67 -158 -146
-188 -177 l-54 -55 68 -75 c37 -42 70 -76 72 -76 3 0 74 66 157 148 802 779
1768 1233 2891 1359 123 14 238 18 495 17 367 0 497 -10 821 -65 945 -159
1848 -620 2541 -1297 l138 -135 72 72 73 72 -135 132 c-527 515 -1204 923
-1935 1165 -342 113 -741 196 -1125 232 -158 15 -637 21 -795 9z"/>
<path d="M9005 8165 c-297 -62 -390 -85 -388 -96 5 -41 195 -956 201 -970 6
-14 58 -5 412 69 223 46 407 86 409 88 5 5 -27 165 -34 173 -3 3 -125 -19
-270 -49 -146 -29 -268 -51 -271 -47 -10 10 -53 222 -46 228 7 7 438 99 463
99 37 1 40 14 23 96 -9 43 -20 83 -24 87 -4 5 -119 -15 -255 -43 -135 -29
-248 -50 -251 -48 -5 6 -45 200 -41 204 2 2 116 27 254 55 139 29 257 55 263
59 19 12 -18 180 -39 179 -9 -1 -191 -38 -406 -84z"/>
<path d="M10485 8228 c-17 -53 -203 -973 -198 -979 9 -8 263 -62 268 -57 1 1
20 84 40 183 21 99 41 189 45 201 8 21 10 21 237 -27 125 -27 235 -49 244 -49
12 0 20 21 33 86 10 47 16 87 14 89 -2 2 -110 26 -242 54 -131 28 -240 52
-241 53 -7 7 42 212 51 215 6 2 116 -19 245 -46 128 -27 235 -48 237 -46 9 9
40 171 34 176 -7 6 -738 160 -755 159 -4 0 -10 -6 -12 -12z"/>
<path d="M7605 7639 c-55 -43 -101 -84 -103 -89 -2 -5 73 -107 167 -227 208
-265 224 -302 184 -419 -11 -33 -34 -67 -72 -105 -72 -71 -137 -102 -221 -107
-109 -5 -136 17 -339 278 -95 121 -175 220 -179 220 -12 0 -207 -159 -207
-169 0 -17 325 -429 372 -472 86 -79 206 -114 333 -98 262 33 549 288 591 525
13 74 -8 184 -48 256 -28 48 -363 487 -373 487 -3 0 -50 -36 -105 -80z"/>
<path d="M11820 7270 c-267 -160 -486 -293 -487 -298 -2 -5 218 -133 259 -150
5 -2 49 21 98 52 50 31 92 56 95 56 4 0 402 -275 414 -286 3 -3 -3 -53 -13
-113 l-19 -109 103 -98 c56 -55 111 -105 121 -112 22 -15 21 -18 44 143 9 61
45 309 80 553 36 244 65 449 65 457 0 12 -253 195 -268 195 -4 0 -225 -131
-492 -290z m469 -208 c-17 -103 -35 -194 -38 -204 -5 -13 -32 2 -145 81 -77
53 -139 101 -139 106 0 17 348 232 351 218 2 -8 -11 -98 -29 -201z"/>
<path d="M9710 6904 c-753 -53 -1420 -355 -1949 -882 l-134 -134 64 -64 65
-64 139 138 c162 159 261 241 435 357 337 225 730 377 1145 441 170 27 648 27
815 1 463 -73 874 -239 1245 -505 137 -98 247 -195 391 -345 l131 -136 68 63
68 62 -85 95 c-130 143 -301 295 -463 411 -409 294 -879 477 -1390 543 -119
15 -439 26 -545 19z"/>
<path d="M1040 5355 c-8 -2 -49 -9 -90 -15 -105 -17 -220 -55 -323 -106 -297
-146 -499 -403 -584 -739 -33 -134 -43 -367 -19 -501 73 -423 340 -751 718
-883 248 -86 525 -88 792 -5 96 31 252 105 295 143 31 26 31 26 50 206 10 99
18 181 16 183 -2 2 -33 -18 -71 -43 -197 -135 -448 -216 -622 -201 -245 22
-471 178 -605 418 -20 36 -51 108 -69 159 -32 92 -33 98 -33 264 0 201 17 282
92 435 38 77 62 110 128 176 128 129 269 187 455 187 265 0 440 -119 517 -353
l26 -80 44 0 c43 0 44 1 39 28 -6 30 -26 414 -29 562 l-2 95 -85 22 c-138 37
-286 53 -463 52 -89 -1 -169 -3 -177 -4z"/>
<path d="M19045 5224 c-119 -17 -231 -41 -303 -65 -269 -91 -415 -262 -438
-512 -17 -193 65 -368 225 -476 121 -83 207 -117 545 -217 297 -89 372 -128
415 -217 23 -47 27 -119 11 -178 -25 -90 -131 -163 -282 -196 -102 -21 -297
-13 -393 17 -194 61 -323 199 -380 408 l-18 62 -39 0 c-32 0 -39 -3 -34 -15 3
-8 11 -155 18 -325 l12 -310 71 -21 c280 -85 633 -110 889 -64 263 47 480 171
575 329 128 214 98 513 -69 676 -113 110 -211 153 -616 270 -150 44 -295 90
-321 104 -191 97 -191 325 -1 422 72 37 161 54 284 54 194 0 333 -51 445 -163
57 -57 117 -161 133 -229 6 -25 11 -28 47 -28 l41 0 -6 53 c-5 44 -26 448 -26
513 0 18 -13 25 -92 47 -174 49 -252 59 -463 62 -110 2 -213 1 -230 -1z"/>
<path d="M14285 5200 c-394 -50 -711 -319 -819 -693 -109 -374 -9 -809 247
-1083 176 -188 381 -281 644 -291 156 -7 263 7 388 48 325 108 552 351 643
688 24 88 26 112 26 291 0 179 -2 203 -26 292 -53 194 -146 356 -280 484 -136
130 -288 211 -469 249 -89 19 -265 26 -354 15z m226 -306 c151 -45 257 -141
338 -306 109 -220 151 -554 96 -763 -79 -294 -326 -458 -590 -390 -87 23 -152
62 -225 135 -104 104 -178 252 -223 444 -29 124 -31 408 -4 505 53 193 170
325 332 377 58 18 211 17 276 -2z"/>
<path d="M2320 5141 c0 -37 2 -41 26 -41 39 0 90 -28 103 -56 8 -18 11 -263
11 -885 l0 -861 -28 -27 c-17 -17 -43 -30 -70 -34 -39 -7 -42 -9 -42 -40 l0
-32 370 0 370 0 0 32 c0 29 -3 32 -49 43 -90 21 -86 -1 -89 441 l-3 389 371 0
370 0 0 -375 c0 -309 -3 -381 -15 -404 -14 -27 -42 -44 -97 -57 -23 -5 -28
-12 -28 -38 l0 -31 370 0 370 0 0 32 c0 31 -3 33 -41 39 -54 9 -88 39 -99 89
-14 57 -13 1640 1 1688 13 48 42 74 93 84 38 8 41 11 44 46 l3 37 -133 -7
c-167 -10 -317 -10 -480 -1 l-128 8 0 -40 c0 -36 2 -40 25 -40 34 0 80 -24 99
-52 14 -19 16 -70 16 -355 l0 -333 -370 0 -370 0 0 333 c0 285 2 336 16 355
19 28 65 52 99 52 23 0 25 4 25 41 l0 40 -97 -8 c-54 -4 -177 -7 -273 -7 -96
0 -219 3 -272 7 l-98 8 0 -40z"/>
<path d="M5340 5142 c0 -36 2 -40 32 -46 42 -8 78 -43 78 -75 0 -13 -36 -115
-79 -225 -44 -111 -190 -482 -326 -826 -135 -344 -257 -642 -271 -663 -22 -34
-53 -55 -106 -71 -13 -4 -18 -16 -18 -42 l0 -37 80 7 c104 9 365 10 469 1 l81
-8 0 37 c0 31 -4 36 -27 41 -86 19 -120 57 -109 125 3 19 39 125 80 235 l74
200 303 0 302 0 60 -180 c46 -141 59 -195 61 -247 1 -80 -8 -92 -86 -118 -50
-18 -53 -21 -56 -55 l-3 -37 103 7 c136 9 415 9 561 0 l117 -7 0 36 c0 32 -4
37 -37 51 -45 19 -77 47 -106 94 -12 20 -152 440 -312 936 l-291 900 -40 -2
c-125 -6 -428 -6 -476 1 l-58 7 0 -39z m350 -595 c22 -103 61 -257 86 -342 24
-85 44 -160 44 -165 0 -6 -78 -10 -210 -10 -148 0 -210 3 -210 11 0 6 38 113
84 238 46 124 101 279 121 344 21 64 39 116 41 115 1 -2 21 -88 44 -191z"/>
<path d="M7150 5142 l0 -39 55 -12 c77 -17 85 -32 85 -158 0 -56 -13 -358 -30
-670 -48 -910 -48 -921 -65 -954 -18 -34 -69 -69 -102 -69 -41 0 -53 -11 -53
-47 l0 -35 85 7 c109 9 370 9 491 0 l95 -7 -3 38 c-3 37 -4 38 -59 49 -67 13
-106 37 -119 71 -14 35 -12 315 5 869 8 259 15 472 15 475 2 14 41 -84 298
-755 154 -401 283 -738 287 -747 6 -16 23 -18 135 -18 l128 0 12 33 c6 17 96
282 200 587 341 1005 299 884 305 878 9 -9 87 -1042 88 -1175 2 -119 0 -134
-19 -160 -25 -34 -59 -51 -116 -61 -41 -7 -43 -9 -46 -46 l-3 -39 100 7 c132
10 438 10 580 1 l112 -8 -3 39 c-3 36 -6 39 -38 45 -50 8 -99 36 -109 62 -5
13 -32 333 -61 712 -79 1053 -75 984 -57 1027 13 32 23 40 61 50 44 12 46 13
46 50 l0 38 -82 -7 c-102 -8 -297 -10 -443 -3 l-110 5 -117 -345 c-64 -190
-166 -493 -227 -675 -128 -379 -131 -389 -141 -378 -4 4 -125 322 -270 706
l-263 698 -81 -8 c-105 -9 -400 -9 -493 1 l-73 7 0 -39z"/>
<path d="M12200 5140 c0 -37 2 -40 28 -40 33 0 87 -31 102 -59 7 -14 10 -280
8 -885 -3 -980 5 -894 -89 -916 -47 -12 -49 -13 -49 -47 l0 -36 109 7 c139 9
383 9 522 0 l109 -7 0 37 c0 34 -2 36 -42 43 -27 4 -53 17 -70 34 l-28 27 0
866 0 866 28 30 c19 23 39 33 70 37 41 6 42 6 42 45 l0 39 -102 -8 c-57 -4
-177 -8 -268 -8 -91 0 -211 4 -267 8 l-103 8 0 -41z"/>
<path d="M15900 5140 c0 -37 2 -40 28 -40 37 0 90 -34 102 -66 7 -17 9 -334 8
-881 l-3 -855 -33 -29 c-22 -20 -43 -29 -67 -29 -34 0 -35 -1 -35 -40 l0 -40
108 8 c136 9 238 9 375 0 l108 -8 -3 38 c-3 36 -4 37 -49 42 -58 7 -91 29
-113 73 -15 32 -16 101 -14 733 l3 698 508 -792 509 -792 164 0 164 0 0 924
c0 577 4 934 10 950 12 32 65 66 103 66 25 0 27 3 27 41 l0 41 -77 -8 c-102
-10 -337 -10 -435 0 l-78 8 0 -40 0 -39 46 -6 c56 -6 93 -31 117 -79 16 -32
17 -79 15 -623 l-3 -588 -423 686 -424 686 -81 -7 c-105 -9 -225 -9 -409 1
l-148 7 0 -40z"/>
<path d="M10070 5125 c0 -42 2 -45 25 -45 42 0 85 -29 101 -65 12 -29 14 -164
14 -827 0 -509 -4 -809 -11 -838 -12 -55 -51 -98 -96 -106 -31 -6 -33 -9 -33
-46 l0 -40 103 7 c137 9 349 9 535 0 l153 -8 -3 38 c-3 38 -4 38 -67 55 -43
12 -74 28 -95 49 l-31 31 -3 775 c-2 697 -1 775 13 775 9 0 58 5 110 11 173
19 334 -21 417 -103 59 -59 80 -119 86 -237 7 -161 -26 -269 -108 -351 -80
-80 -177 -110 -357 -110 -74 0 -124 -4 -128 -10 -22 -36 76 -96 214 -131 71
-18 104 -20 200 -16 137 6 206 23 321 79 212 103 334 324 317 574 -24 344
-225 529 -621 573 -54 6 -302 11 -576 11 l-480 0 0 -45z"/>
<path d="M10560 2216 c-322 -68 -535 -265 -616 -571 -26 -98 -27 -362 -1 -454
44 -162 103 -266 207 -371 85 -85 155 -130 262 -167 97 -35 298 -44 398 -19
86 22 180 68 247 123 30 25 57 43 59 40 2 -2 15 -35 28 -73 l23 -69 71 -3 72
-3 0 291 c0 337 1 342 75 361 41 10 45 14 45 43 l0 31 -305 0 -305 0 0 -36 0
-37 57 -4 c86 -7 93 -20 93 -181 0 -121 -2 -133 -25 -173 -65 -110 -277 -136
-414 -50 -94 60 -190 203 -231 346 -31 108 -38 283 -15 386 43 200 155 329
329 381 72 22 215 21 294 -2 138 -40 248 -145 272 -260 5 -25 11 -31 39 -33
l34 -4 -6 138 c-4 75 -7 169 -7 209 l0 72 -55 27 c-107 52 -194 68 -385 72
-120 2 -195 -1 -240 -10z"/>
<path d="M5082 2175 c2 -24 8 -31 29 -33 15 -2 37 -14 50 -28 l24 -26 3 -634
c2 -429 -1 -647 -8 -674 -11 -40 -47 -70 -85 -70 -10 0 -15 -10 -15 -30 l0
-30 584 0 584 0 6 31 c3 17 6 49 6 71 0 39 36 296 46 331 4 14 -1 17 -33 17
-39 0 -39 0 -57 -60 -23 -77 -65 -134 -118 -162 -41 -22 -53 -23 -303 -23
l-260 0 0 607 c0 600 0 607 21 635 14 18 36 32 65 39 38 9 44 14 47 40 l3 29
-296 0 -296 0 3 -30z"/>
<path d="M8680 2180 c0 -21 7 -29 36 -39 72 -26 80 3 -196 -697 -138 -352
-262 -655 -275 -676 -15 -23 -37 -40 -60 -48 -28 -9 -35 -17 -35 -38 l0 -27
245 0 245 0 0 26 c0 23 -5 28 -36 33 -46 9 -74 38 -74 76 0 17 28 105 61 196
l61 164 231 -2 231 -3 48 -145 c57 -173 62 -228 22 -259 -15 -12 -33 -21 -41
-21 -30 0 -50 -19 -46 -42 l4 -23 300 0 299 0 0 26 c0 20 -7 30 -30 39 -17 7
-43 28 -60 46 -30 35 -31 37 -367 1074 l-118 365 -222 0 -223 0 0 -25z m259
-400 c17 -87 76 -324 96 -379 26 -75 33 -71 -145 -71 -88 0 -160 4 -160 8 0 5
27 80 59 168 33 87 74 205 92 261 18 57 36 97 40 90 3 -6 12 -41 18 -77z"/>
<path d="M11800 2178 c0 -22 7 -28 42 -40 27 -8 47 -22 55 -38 10 -19 13 -145
13 -530 0 -407 3 -519 15 -575 40 -188 148 -295 355 -352 95 -26 476 -26 569
0 191 54 294 156 348 342 14 52 17 126 20 580 5 578 2 556 73 575 34 9 40 15
40 38 l0 27 -295 0 -295 0 0 -27 c0 -27 5 -30 68 -43 63 -13 63 -14 60 -593
-4 -580 -4 -578 -78 -652 -48 -48 -109 -65 -235 -65 -116 0 -174 18 -223 68
-67 69 -67 64 -69 652 -3 415 0 535 10 555 12 24 30 33 90 45 21 4 27 11 27
33 l0 27 -295 0 -295 0 0 -27z"/>
<path d="M6580 2171 c0 -24 5 -29 32 -35 18 -3 42 -16 55 -28 l23 -21 0 -658
c0 -362 -3 -665 -6 -674 -8 -19 -55 -45 -84 -45 -16 0 -20 -6 -20 -30 l0 -30
628 0 629 0 6 163 c4 89 10 190 13 225 l7 63 -38 -3 -37 -3 -22 -76 c-27 -92
-45 -123 -89 -146 -29 -16 -64 -18 -332 -18 l-300 0 0 245 0 245 155 3 c231 5
260 -3 285 -75 10 -31 18 -39 42 -41 l28 -3 -1 223 -2 223 -28 0 c-24 0 -29
-5 -35 -35 -4 -19 -19 -45 -34 -57 -25 -22 -33 -23 -221 -23 l-194 0 0 225 0
225 293 0 c275 0 294 -1 325 -20 34 -21 71 -87 72 -127 0 -20 5 -23 36 -23
l36 0 -6 53 c-3 28 -8 109 -12 180 l-7 127 -598 0 -599 0 0 -29z"/>
<path d="M13720 2170 c0 -25 4 -30 35 -36 20 -3 44 -17 55 -31 19 -25 20 -43
20 -678 0 -642 0 -653 -20 -678 -12 -15 -36 -29 -55 -33 -30 -5 -35 -10 -35
-35 l0 -29 624 0 624 0 7 127 c3 71 11 168 16 217 6 54 6 93 1 98 -5 5 -22 8
-38 6 -25 -3 -30 -10 -49 -73 -27 -89 -49 -127 -89 -151 -28 -17 -58 -19 -333
-22 l-303 -4 0 251 0 251 194 0 c219 0 225 -2 249 -75 12 -33 19 -40 41 -40
14 0 27 2 27 5 1 3 -2 61 -5 130 -4 69 -3 167 1 218 l9 92 -32 0 c-27 0 -32
-4 -37 -29 -3 -16 -17 -42 -31 -57 l-24 -29 -196 -3 -196 -4 0 226 0 226 290
0 c314 0 330 -2 363 -54 9 -13 21 -45 28 -70 11 -44 13 -46 46 -46 27 0 34 3
29 15 -3 9 -9 90 -12 180 l-7 165 -599 0 -598 0 0 -30z"/>
<path d="M15260 553 c-65 -24 -141 -104 -163 -172 -35 -110 -13 -206 66 -286
60 -59 122 -85 205 -85 74 0 121 16 178 59 69 52 104 123 104 211 0 120 -46
203 -141 255 -67 36 -178 44 -249 18z m211 -54 c73 -36 129 -129 129 -212 0
-98 -73 -196 -167 -223 -196 -57 -358 142 -269 332 53 115 193 161 307 103z"/>
<path d="M15260 290 l0 -160 25 0 c24 0 25 2 25 70 0 70 0 70 28 70 24 0 33
-10 66 -66 40 -67 52 -78 81 -72 13 2 8 15 -25 68 -31 46 -39 65 -29 69 28 9
69 60 69 85 0 37 -19 72 -47 85 -13 6 -62 11 -108 11 l-85 0 0 -160z m172 103
c44 -39 8 -83 -69 -83 l-53 0 0 50 0 50 52 0 c34 0 58 -6 70 -17z"/>
</g>
</svg>
